<?xml version="1.0" encoding="UTF-8"?>
<svg width="100%" height="100%" viewBox="0 0 100 100" version="1.1">
<defs>
<radialGradient id="radial0" gradientUnits="userSpaceOnUse" cx="0.5" cy="0.5" fx="0.5" fy="0.5" r="0.5" gradientTransform="matrix(300,0,0,300,0,0)">
<stop offset="0" style="stop-color:rgb(40%,0%,0%);stop-opacity:1;"/>
<stop offset="0.5" style="stop-color:rgb(76.470588%,0%,0%);stop-opacity:1;"/>
<stop offset="1" style="stop-color:rgb(62.745098%,0%,0%);stop-opacity:1;"/>
</radialGradient>
</defs>
<g id="surface1">
<path style="fill-rule:nonzero;fill:url(#radial0);stroke-width:10;stroke-linecap:butt;stroke-linejoin:miter;stroke:rgb(0%,0%,0%);stroke-opacity:1;stroke-miterlimit:4;" d="M 294.996094 150 C 294.996094 230.085938 230.085938 294.996094 150 294.996094 C 69.914062 294.996094 5.003906 230.085938 5.003906 150 C 5.003906 69.914062 69.914062 5.003906 150 5.003906 C 230.085938 5.003906 294.996094 69.914062 294.996094 150 Z M 294.996094 150 " transform="matrix(0.333333,0,0,0.333333,0,0)"/>
<path style="fill:none;stroke-width:15;stroke-linecap:butt;stroke-linejoin:miter;stroke:rgb(0%,0%,0%);stroke-opacity:1;stroke-miterlimit:4;" d="M 180 60 C 180 76.570312 166.570312 90 150 90 C 133.429688 90 120 76.570312 120 60 C 120 43.429688 133.429688 30 150 30 C 166.570312 30 180 43.429688 180 60 Z M 180 60 " transform="matrix(0.333333,0,0,0.333333,0,0)"/>
<path style=" stroke:none;fill-rule:nonzero;fill:rgb(0%,0%,0%);fill-opacity:1;" d="M 50.367188 8.199219 L 58.035156 14.367188 L 60 27.5 C 80.300781 20.933594 85 55.632812 81.367188 53.734375 C 85 61.066406 88.167969 61.667969 87.632812 60.632812 C 86.832031 59.066406 86.933594 58.464844 86.933594 57 C 88.300781 34.535156 75.667969 11.332031 50.367188 8.199219 Z M 50.367188 8.199219 "/>
<path style=" stroke:none;fill-rule:nonzero;fill:rgb(0%,0%,0%);fill-opacity:1;" d="M 38.332031 83.332031 L 38.332031 96.667969 L 50 98.332031 L 61.667969 96.667969 L 61.667969 83.332031 Z M 38.332031 83.332031 "/>
<path style="fill:none;stroke-width:15;stroke-linecap:butt;stroke-linejoin:miter;stroke:rgb(0%,0%,0%);stroke-opacity:1;stroke-miterlimit:4;" d="M 180.000186 60.000909 C 179.996905 76.565539 166.564923 90.003789 150.000293 90.000508 C 133.435663 89.997227 119.997413 76.565246 120.000694 60.000615 C 119.998116 43.425837 133.435957 29.997735 150.000587 30.001016 C 166.565217 30.004297 179.997607 43.42613 180.000186 60.000909 Z M 180.000186 60.000909 " transform="matrix(-0.166667,0.288675,-0.288675,-0.166667,118.30127,31.69873)"/>
<path style=" stroke:none;fill-rule:nonzero;fill:rgb(0%,0%,0%);fill-opacity:1;" d="M 86.015625 71.21875 L 76.84375 74.773438 L 64.484375 69.910156 C 60.023438 90.773438 27.621094 77.496094 31.082031 75.296875 C 22.914062 74.777344 20.8125 77.21875 21.972656 77.273438 C 23.730469 77.367188 24.199219 77.75 25.472656 78.484375 C 44.246094 90.902344 70.652344 91.5625 86.015625 71.21875 Z M 86.015625 71.21875 "/>
<path style=" stroke:none;fill-rule:nonzero;fill:rgb(0%,0%,0%);fill-opacity:1;" d="M 26.964844 23.230469 L 15.417969 16.5625 L 8.140625 25.832031 L 3.753906 36.769531 L 15.300781 43.4375 Z M 26.964844 23.230469 "/>
<path style="fill:none;stroke-width:15;stroke-linecap:butt;stroke-linejoin:miter;stroke:rgb(0%,0%,0%);stroke-opacity:1;stroke-miterlimit:4;" d="M 179.999306 60.000615 C 180.002587 76.565246 166.564337 89.997227 149.999707 90.000508 C 133.435077 90.003789 120.003095 76.565539 119.999814 60.000909 C 120.002393 43.42613 133.434783 30.004297 149.999413 30.001016 C 166.564043 29.997735 180.001884 43.425837 179.999306 60.000615 Z M 179.999306 60.000615 " transform="matrix(-0.166667,-0.288675,0.288675,-0.166667,31.69873,118.30127)"/>
<path style=" stroke:none;fill-rule:nonzero;fill:rgb(0%,0%,0%);fill-opacity:1;" d="M 13.617188 70.582031 L 15.125 60.859375 L 25.515625 52.589844 C 9.675781 38.292969 37.378906 16.871094 37.550781 20.96875 C 42.085938 14.15625 41.019531 11.113281 40.390625 12.09375 C 39.433594 13.566406 38.867188 13.78125 37.59375 14.515625 C 17.457031 24.566406 3.679688 47.105469 13.617188 70.582031 Z M 13.617188 70.582031 "/>
<path style=" stroke:none;fill-rule:nonzero;fill:rgb(0%,0%,0%);fill-opacity:1;" d="M 84.699219 43.4375 L 96.246094 36.769531 L 91.859375 25.832031 L 84.582031 16.5625 L 73.035156 23.230469 Z M 84.699219 43.4375 "/>
<path style=" stroke:none;fill-rule:nonzero;fill:rgb(0%,0%,0%);fill-opacity:1;" d="M 59.332031 50 C 59.332031 55.15625 55.15625 59.332031 50 59.332031 C 44.84375 59.332031 40.667969 55.15625 40.667969 50 C 40.667969 44.84375 44.84375 40.667969 50 40.667969 C 55.15625 40.667969 59.332031 44.84375 59.332031 50 Z M 59.332031 50 "/>
</g>
</svg>
